<?xml version="1.0" encoding="iso-8859-1"?>
<!-- Generator: Adobe Illustrator 19.0.0, SVG Export Plug-In . SVG Version: 6.00 Build 0)  -->
<svg version="1.1" id="Layer_1" xmlns="http://www.w3.org/2000/svg" xmlns:xlink="http://www.w3.org/1999/xlink" x="0px" y="0px"
	 viewBox="0 0 800 800" style="enable-background:new 0 0 800 800;" xml:space="preserve">
<g id="Shadows">
	
		<rect id="Gap_Fill" x="320" y="303.5" transform="matrix(0.7908 0.6121 -0.6121 0.7908 328.4933 -161.1477)" style="stroke:#000000;stroke-miterlimit:10;" width="160" height="193"/>
	<circle id="Button_4_Shadow" style="stroke:#000000;stroke-miterlimit:10;" cx="575" cy="550" r="195"/>
	<circle id="Button_3_Shadow" style="stroke:#000000;stroke-miterlimit:10;" cx="225" cy="600" r="195"/>
	<circle id="Button_2_Shadow" style="stroke:#000000;stroke-miterlimit:10;" cx="575" cy="200" r="195"/>
	<circle id="Button_1_Shadow" style="stroke:#000000;stroke-miterlimit:10;" cx="225" cy="250" r="195"/>
</g>
<g id="PS4" style="display:none;">
	<circle id="Button_4_PS4" style="display:inline;fill:#F5837F;stroke:#000000;stroke-miterlimit:10;" cx="575" cy="550" r="150"/>
	<circle id="Button_3_PS4" style="display:inline;fill:#A5B8D9;stroke:#000000;stroke-miterlimit:10;" cx="225" cy="600" r="150"/>
	<circle id="Button_2_PS4" style="display:inline;fill:#61C9C3;stroke:#000000;stroke-miterlimit:10;" cx="575" cy="200" r="150"/>
	<circle id="Button_1_PS4" style="display:inline;fill:#E6A9CD;stroke:#000000;stroke-miterlimit:10;" cx="225" cy="250" r="150"/>
</g>
<g id="XBOX" style="display:none;">
	<circle id="Button_4" style="display:inline;fill:#D04242;stroke:#000000;stroke-miterlimit:10;" cx="575" cy="550" r="150"/>
	<circle id="Button_3" style="display:inline;fill:#3CFF4E;stroke:#000000;stroke-miterlimit:10;" cx="225" cy="600" r="150"/>
	<circle id="Button_2" style="display:inline;fill:#ECDB33;stroke:#000000;stroke-miterlimit:10;" cx="575" cy="200" r="150"/>
	<circle id="Button_1" style="display:inline;fill:#40CCD0;stroke:#000000;stroke-miterlimit:10;" cx="225" cy="250" r="150"/>
</g>
<g id="OFF">
	<circle id="Button_4_OFF" style="fill:#3F5554;stroke:#000000;stroke-miterlimit:10;" cx="575" cy="550" r="150"/>
	<circle id="Button_3_OFF" style="fill:#3F5554;stroke:#000000;stroke-miterlimit:10;" cx="225" cy="600" r="150"/>
	<circle id="Button_2_OFF" style="fill:#3F5554;stroke:#000000;stroke-miterlimit:10;" cx="575" cy="200" r="150"/>
	<circle id="Button_1_OFF" style="fill:#3F5554;stroke:#000000;stroke-miterlimit:10;" cx="225" cy="250" r="150"/>
</g>
<g id="STEAM">
	<circle id="Button_4_OFF_1_" style="fill:#126B7F;stroke:#000000;stroke-miterlimit:10;" cx="575" cy="550" r="150"/>
	<circle id="Button_3_OFF_1_" style="display:none;fill:#126B7F;stroke:#000000;stroke-miterlimit:10;" cx="225" cy="600" r="150"/>
	<circle id="Button_2_OFF_1_" style="display:none;fill:#126B7F;stroke:#000000;stroke-miterlimit:10;" cx="575" cy="200" r="150"/>
	<circle id="Button_1_OFF_1_" style="display:none;fill:#126B7F;stroke:#000000;stroke-miterlimit:10;" cx="225" cy="250" r="150"/>
</g>
<g id="XMLID_4_">
	<path id="XMLID_12_" style="fill:#F2F2F2;" d="M625.56,445.16v119.039H647v32.32h-21.44v46.72H586.2v-46.72h-82.56v-28.8
		c4.05-8.32,9.279-17.76,15.68-28.32c6.399-10.56,13.439-21.385,21.12-32.479c7.68-11.09,15.785-22.025,24.319-32.8
		c8.53-10.771,17.065-20.426,25.601-28.96H625.56z M586.2,494.439c-3.84,4.91-7.79,10.135-11.84,15.681
		c-4.056,5.55-8.056,11.359-12,17.439c-3.95,6.08-7.735,12.215-11.36,18.4c-3.63,6.189-6.83,12.27-9.6,18.239h44.8V494.439z"/>
</g>
<g id="XMLID_2_" style="display:none;">
	<path id="XMLID_10_" style="display:inline;fill:#F2F2F2;" d="M213.16,697.399c-4.91,0-10.08-0.375-15.52-1.12
		c-5.44-0.75-10.671-1.655-15.681-2.72c-5.015-1.065-9.654-2.24-13.92-3.521c-4.27-1.279-7.575-2.449-9.92-3.52l7.68-32.96
		c4.905,2.135,11.25,4.375,19.04,6.72c7.785,2.351,17.12,3.521,28,3.521c13.44,0,22.88-2.88,28.32-8.641
		c5.439-5.76,8.16-12.904,8.16-21.439c0-10.45-4.16-17.76-12.48-21.92c-8.319-4.16-18.88-6.24-31.68-6.24H193v-32.64h14.72
		c4.051,0,8.105-0.425,12.16-1.28c4.05-0.85,7.681-2.24,10.88-4.16c3.2-1.92,5.811-4.479,7.841-7.68
		c2.024-3.2,3.039-7.25,3.039-12.16c0-7.25-2.189-12.96-6.56-17.12c-4.375-4.16-10.4-6.24-18.08-6.24
		c-7.47,0-14.88,1.23-22.24,3.681c-7.359,2.455-13.71,5.495-19.04,9.12l-14.079-28.801c5.76-3.84,13.385-7.729,22.88-11.68
		c9.489-3.944,20.21-5.92,32.159-5.92c11.091,0,20.745,1.39,28.96,4.16c8.21,2.775,14.985,6.67,20.32,11.68
		c5.33,5.016,9.28,10.936,11.84,17.76c2.561,6.83,3.84,14.19,3.84,22.08c0,7.896-2.239,15.471-6.72,22.721
		c-4.479,7.255-10.455,12.8-17.92,16.64c10.24,4.27,18.185,10.56,23.84,18.88c5.65,8.32,8.48,18.24,8.48,29.76
		c0,9.175-1.495,17.601-4.48,25.28c-2.99,7.68-7.575,14.35-13.76,20c-6.19,5.655-14.08,10.03-23.68,13.12
		C237.8,695.85,226.385,697.399,213.16,697.399z"/>
</g>
<g id="XMLID_3_" style="display:none;">
	<path id="XMLID_8_" style="display:inline;fill:#F2F2F2;" d="M633.881,147.32c0,6.83-1.281,13.39-3.84,19.68
		c-2.561,6.295-5.976,12.43-10.24,18.4c-4.271,5.975-9.07,11.735-14.4,17.28c-5.335,5.55-10.775,10.88-16.32,16
		c-2.775,2.56-5.975,5.6-9.6,9.12c-3.63,3.52-7.04,7.15-10.24,10.88c-3.199,3.735-5.92,7.52-8.16,11.36
		c-2.24,3.84-3.359,7.36-3.359,10.56h85.119v32.64H513.561c-0.641-2.13-0.91-4.8-0.801-8c0.105-3.2,0.16-5.44,0.16-6.72
		c0-10.665,1.971-20.479,5.92-29.44c3.945-8.96,8.961-17.225,15.041-24.8c6.08-7.57,12.584-14.61,19.52-21.12
		c6.93-6.505,13.439-12.745,19.52-18.72c6.08-5.97,11.09-11.73,15.041-17.28c3.944-5.545,5.92-11.2,5.92-16.96
		c0-8.105-2.455-14.345-7.36-18.72c-4.91-4.37-11.095-6.56-18.56-6.56c-6.19,0-12.695,1.495-19.521,4.48
		c-6.83,2.99-13.55,8-20.16,15.04l-19.521-27.52c8.531-8.96,18.4-15.57,29.601-19.84c11.2-4.265,22.345-6.4,33.44-6.4
		c8.104,0,15.89,1.175,23.359,3.52c7.465,2.35,14.08,5.87,19.84,10.56c5.76,4.695,10.346,10.615,13.76,17.76
		C632.17,129.67,633.881,137.935,633.881,147.32z"/>
</g>
<g id="XMLID_1_" style="display:none;">
	<path id="XMLID_6_" style="display:inline;fill:#F2F2F2;" d="M213.16,310.6V199.88c-5.975,4.27-12.8,8.055-20.48,11.359
		c-7.68,3.311-14.189,5.921-19.52,7.841l-12.8-32.641c5.12-1.92,10.665-4.37,16.64-7.359c5.97-2.985,11.945-6.29,17.92-9.92
		c5.971-3.625,11.625-7.466,16.96-11.521c5.33-4.05,9.92-8.21,13.76-12.479h26.881V310.6h39.359v32.64H171.561V310.6H213.16z"/>
</g>
<g id="XMLID_5_">
</g>
<g id="XMLID_15_">
</g>
<g id="XMLID_16_">
</g>
<g id="XMLID_17_">
</g>
<g id="XMLID_18_">
</g>
<g id="XMLID_19_">
</g>
<g id="XMLID_20_">
</g>
<g id="XMLID_21_">
</g>
<g id="XMLID_22_">
</g>
<g id="XMLID_23_">
</g>
<g id="XMLID_24_">
</g>
<g id="XMLID_25_">
</g>
<g id="XMLID_26_">
</g>
<g id="XMLID_27_">
</g>
<g id="XMLID_28_">
</g>
</svg>
